<svg xmlns="http://www.w3.org/2000/svg" viewBox="0 0 339.48 128.33"><defs><style>.cls-1,.cls-2{fill:#cd131c;}.cls-1,.cls-3{fill-rule:evenodd;}.cls-3,.cls-4{fill:#3d3837;}</style></defs><title>logo2</title><g id="图层_2" data-name="图层 2"><g id="图层_1-2" data-name="图层 1"><path class="cls-1" d="M55.34,0A64.71,64.71,0,0,0,0,54.19l10,10-10,10A64.05,64.05,0,0,0,5.31,91.57a64.78,64.78,0,0,0,50,36.76v-46l-11.1-11.1a10,10,0,0,1,0-14.15L55.34,46V0ZM18,76.91,30.74,64.17,18,51.42A47.91,47.91,0,0,1,38.31,23.93v80.48A47.93,47.93,0,0,1,18,76.91Z"/><rect class="cls-2" x="49.55" y="49.74" width="28.86" height="28.86" rx="5.48" ry="5.48" transform="translate(-26.63 64.03) rotate(-45)"/><path class="cls-1" d="M72.61,0A64.71,64.71,0,0,1,128,54.19l-10,10,10,10a64.05,64.05,0,0,1-5.31,17.43,64.79,64.79,0,0,1-50,36.76v-46l11.1-11.1a10,10,0,0,0,0-14.15L72.61,46V0ZM110,76.91,97.21,64.17,110,51.42A47.91,47.91,0,0,0,89.64,23.93v80.48A47.93,47.93,0,0,0,110,76.91Z"/><path class="cls-3" d="M327.83,77.55v9.63h6.22v4.51h-6.22v11c-.12,2.41,1,3.51,3.37,3.31a9.35,9.35,0,0,0,3.39-1v3.91a11.14,11.14,0,0,1-6.4,1.81c-5.92.1-8.71-2.31-8.71-7.22V82.76Z"/><polygon class="cls-3" points="314.66 110.05 306.13 110.05 306.13 87.61 314.66 82.94 314.66 110.05"/><polygon class="cls-3" points="306.13 82.66 306.13 77.71 314.66 77.71 306.13 82.66"/><path class="cls-3" d="M244.93,106.89v-4.36a21.32,21.32,0,0,0,10.85,3.76c5,.3,7.52-.56,7.64-2.56.23-1.4-1.54-2.41-5.33-3q-3.21-.45-6-1-6.23-1.65-6.4-6.17c.23-4.61,4.21-7,11.9-7.07q10.84-.3,13.51,6.92h-8.35c-.72-1.5-2.32-2.26-4.8-2.26s-3.61.81-3.73,2.11q-.18,1.65,3.73,2.25l6.4,1.36q7.8,1.65,7.64,7.07.17,6.62-12.26,6.77Q250.8,110.8,244.93,106.89Z"/><path class="cls-3" d="M242.24,100.72H224l4.43-4.51h5.67c-.25-7-11.83-7.08-13.13.58-.54,3.18.64,6.79,3.18,8.22a12.46,12.46,0,0,0,6,1.42,17.43,17.43,0,0,0,11.73-4.51v4.82q-4.8,4-13.5,4.06-15.28-.45-16-11.73c.48-15.94,24.08-15.83,28.6-5.79A17.07,17.07,0,0,1,242.24,100.72Z"/><path class="cls-3" d="M162.51,110.65H149.18V80.12l8.53-4.67v30.84h3.2c11.63,0,11.47-15.4-.17-15.2h-.2V86.43h2C183.13,86.43,183.61,110.85,162.51,110.65Z"/><path class="cls-3" d="M288.33,110.65H275V80.12l8.53-4.67v30.84h3.2c11.63,0,11.47-15.4-.17-15.2h-.2V86.43h2C309,86.43,309.43,110.85,288.33,110.65Z"/><path class="cls-3" d="M209.87,100.72H191.58L196,96.21h5.67c-.25-7-11.83-7.08-13.13.58-.54,3.18.63,6.79,3.18,8.22a12.43,12.43,0,0,0,6,1.42,17.45,17.45,0,0,0,11.73-4.51v4.82q-4.8,4-13.5,4.06-15.28-.45-16-11.73c.48-15.94,24.08-15.83,28.6-5.79A17.07,17.07,0,0,1,209.87,100.72Z"/><path class="cls-3" d="M256.26,42.2l-6-2.15q-2.87,4.29-9.13,7.39h3.66v2.07c0,.43,0,.85,0,1.27h24.81V63.87q.51,8.81-9.92,8.33h-9.14l5-6c1.91.16,2.78-.63,2.6-2.38V57.21H244C240.84,70.27,229,72,214.76,73.18V67.46Q231.47,64.37,233,57.21h-17V50.78h17.21V47.44h3.65v-4.3a20.61,20.61,0,0,0,4.67-5.23L238.24,37V31L244,32.18a33,33,0,0,0,.78-4.52h-6.24V21.45h6.24V17.64h9.67v3.81H267V41c0,1,.52,1.43,1.57,1.43.87,0,1.32-.48,1.32-1.43l5.21-3.57v4.76q.27,6.91-7.05,6.68h-3.4q-7.56.23-7.32-6.68V27.66h-3.13a28.17,28.17,0,0,1-1,6l3.13,1.05V42.2Z"/><path class="cls-3" d="M221.81,17.64v3.81h-7v6.21h7v4.51l-7.56,1.43v6.81l7.56-1.58V41c0,1.28-.51,1.9-2.08,1.9l-2.87,6.2h6c5.91,0,8.62-2.46,8.62-7.86V36.93l3.13-.71,2.08-6.43-5.21,1V27.66h2.06l2.89-6.21h-5V17.64Z"/><path class="cls-3" d="M336.63,31.46V18.82H299.85v5.72h26.87v2.39H299.85v5h-7.6L279.2,43.27V53.91l5.22-5.4V72H294.6V39.37l5.25-5.55v6.46H328Q337.16,41,336.63,31.46Zm-12.76,3.11h-14.1V32.18h17C326.91,33.93,326,34.72,323.87,34.57Z"/><path class="cls-3" d="M339.48,51H333V48.4h3.27L339,42.19H298V48.4h24.54V51h-26.1v6h26.1v6c0,2.07-.78,2.86-2.88,2.86h-7.18l1.93-5.75H305l-4.31,11.46H324.6c5.74,0,8.52-2.61,8.35-8.33V57h3.27l3.26-6Z"/><polygon class="cls-3" points="279.46 36.47 299.82 18.82 288.6 18.82 279.46 26.75 279.46 36.47 279.46 36.47"/><path class="cls-4" d="M186,66.56h-7.22q-3.47.22-3.73-3c15.38-9.37,26.79-25.39,29.14-44.08H194.07a52.09,52.09,0,0,1-19,32.48V23.73H163.63V58.09c0,.28,0,.58,0,.87a51.89,51.89,0,0,1-14.44,4v9.18a60.22,60.22,0,0,0,15.52-3.51,1.46,1.46,0,0,1,.07.19c1.37,2.8,4.25,4.44,8.57,4.44h15.94q9,.25,8.71-8.71v-4l-8.71,2.49Q189.28,66.57,186,66.56Z"/><polygon class="cls-4" points="162.14 30.53 153.58 30.52 149.18 58.02 157.75 58.02 162.14 30.53"/><polygon class="cls-4" points="187.82 34.65 184.36 17.53 175.31 17.54 178.77 34.65 187.82 34.65"/><path class="cls-4" d="M204,34.39A60.4,60.4,0,0,1,197.29,48l2.77,17.36H209Z"/></g></g></svg>