<svg xmlns="http://www.w3.org/2000/svg" width="13.082" height="12.513" viewBox="0 0 13.082 12.513">
  <path id="路径_5845" data-name="路径 5845" d="M64.948,73.721a5.462,5.462,0,0,1-2.559-4.514c0-3.142,2.929-5.688,6.541-5.688s6.541,2.547,6.541,5.688S72.542,74.9,68.93,74.9a7.457,7.457,0,0,1-1.848-.23L65.4,75.936c-.251.19-.455.09-.455-.224V73.721Zm7.963-3.66a.853.853,0,1,0-.853-.853A.853.853,0,0,0,72.911,70.061Zm-3.981,0a.853.853,0,1,0-.853-.853A.853.853,0,0,0,68.93,70.061Zm-3.981,0a.853.853,0,1,0-.853-.853A.853.853,0,0,0,64.948,70.061Z" transform="translate(-62.389 -63.519)" fill="#abb2bd"/>
</svg>
