<svg id="组_845" data-name="组 845" xmlns="http://www.w3.org/2000/svg" width="133.545" height="65.512" viewBox="0 0 133.545 65.512">
  <g id="组_837" data-name="组 837" transform="translate(56.475 0)">
    <g id="组_836" data-name="组 836">
      <g id="组_831" data-name="组 831" transform="translate(5.286)" opacity="0.1">
        <path id="路径_6433" data-name="路径 6433" d="M384.9,274.262l7.2-4.182c3.3-1.916,7.857-1.647,12.891,1.261.282.162.563.337.834.512l-7.2,4.182c-.274-.173-.554-.348-.834-.51C392.76,272.618,388.2,272.349,384.9,274.262Z" transform="translate(-384.903 -268.856)" fill="#f4a223"/>
      </g>
      <g id="组_832" data-name="组 832" transform="translate(20.509 0.444)" opacity="0.1">
        <path id="路径_6434" data-name="路径 6434" d="M391.855,274.744l7.2-4.185c4.04-2.35,9.63-2.019,15.812,1.55l-7.2,4.185C401.49,272.725,395.9,272.394,391.855,274.744Z" transform="translate(-391.855 -269.059)" fill="#f4a223"/>
      </g>
      <g id="组_833" data-name="组 833" transform="translate(36.323 3.495)" opacity="0.1">
        <path id="路径_6435" data-name="路径 6435" d="M399.077,274.637l7.2-4.185c9.223,5.325,17.115,16.346,20.454,27.483l-7.2,4.185C416.192,290.981,408.3,279.962,399.077,274.637Z" transform="translate(-399.077 -270.452)" fill="#f4a223"/>
      </g>
      <g id="组_834" data-name="组 834" transform="translate(0 4.185)" opacity="0.2">
        <path id="路径_6436" data-name="路径 6436" d="M418.812,274.261c9.223,5.325,17.115,16.344,20.454,27.483,7.432,5.612,13.116,16.274,13.092,25.193a15.773,15.773,0,0,1-.817,5.157L384.09,293.15a31.218,31.218,0,0,1-1.6-9.541c.033-11.5,8.172-16.134,18.179-10.357.28.162.561.337.834.51C405.595,270.331,411.827,270.228,418.812,274.261Z" transform="translate(-382.489 -270.767)" fill="#f9ba67"/>
      </g>
      <g id="组_835" data-name="组 835" transform="translate(56.777 30.978)" opacity="0.1">
        <path id="路径_6437" data-name="路径 6437" d="M408.418,287.188l7.2-4.185c7.432,5.612,13.119,16.274,13.092,25.193a15.7,15.7,0,0,1-.819,5.157l-7.2,4.185a15.775,15.775,0,0,0,.817-5.157C421.534,303.462,415.85,292.8,408.418,287.188Z" transform="translate(-408.418 -283.003)" fill="#f4a223"/>
      </g>
    </g>
  </g>
  <g id="组_844" data-name="组 844" transform="translate(0 6.426)">
    <g id="组_843" data-name="组 843">
      <g id="组_838" data-name="组 838" transform="translate(4.767)" opacity="0.1">
        <path id="路径_6438" data-name="路径 6438" d="M358.875,276.668l6.493-3.775c2.974-1.725,7.088-1.482,11.63,1.139.252.147.5.3.751.462l-6.495,3.773c-.245-.155-.5-.315-.751-.462C365.961,275.183,361.846,274.94,358.875,276.668Z" transform="translate(-358.875 -271.791)" fill="#f4a223"/>
      </g>
      <g id="组_839" data-name="组 839" transform="translate(18.497 0.4)" opacity="0.1">
        <path id="路径_6439" data-name="路径 6439" d="M365.145,277.1l6.495-3.775c3.646-2.117,8.687-1.82,14.264,1.4l-6.495,3.773C373.834,275.281,368.791,274.981,365.145,277.1Z" transform="translate(-365.145 -271.973)" fill="#f4a223"/>
      </g>
      <g id="组_840" data-name="组 840" transform="translate(32.761 3.152)" opacity="0.1">
        <path id="路径_6440" data-name="路径 6440" d="M371.659,277l6.495-3.773c8.314,4.8,15.435,14.741,18.446,24.788l-6.493,3.773C387.094,291.746,379.978,281.8,371.659,277Z" transform="translate(-371.659 -273.23)" fill="#f4a223"/>
      </g>
      <g id="组_841" data-name="组 841" transform="translate(0 3.773)" opacity="0.2">
        <path id="路径_6441" data-name="路径 6441" d="M389.458,276.665c8.319,4.8,15.435,14.743,18.448,24.788,6.7,5.063,11.831,14.678,11.807,22.723a14.191,14.191,0,0,1-.738,4.651L358.141,293.7A28.105,28.105,0,0,1,356.7,285.1c.028-10.368,7.37-14.553,16.394-9.344.252.147.506.307.751.462C377.535,273.12,383.156,273.028,389.458,276.665Z" transform="translate(-356.698 -273.514)" fill="#f9ba67"/>
      </g>
      <g id="组_842" data-name="组 842" transform="translate(51.209 27.939)" opacity="0.1">
        <path id="路径_6442" data-name="路径 6442" d="M380.084,288.323l6.493-3.773c6.7,5.063,11.831,14.678,11.807,22.721a14.259,14.259,0,0,1-.736,4.653l-6.495,3.773a14.188,14.188,0,0,0,.738-4.651C391.915,303,386.785,293.385,380.084,288.323Z" transform="translate(-380.084 -284.55)" fill="#f4a223"/>
      </g>
    </g>
  </g>
</svg>
