<svg xmlns="http://www.w3.org/2000/svg" width="1920.627" height="229.586" viewBox="0 0 1920.627 229.586">
  <g id="组_1100" data-name="组 1100" transform="translate(0.19 -850.513)">
    <path id="路径_6704" data-name="路径 6704" d="M-11319,7417.02s312.206-54.754,486.927-55.369,475.752,49.89,550.131,65.085,284.079,49.828,384.931,34.232,321.208-72.864,408.568-81.478,89.454-5.194,89.454-5.194l-.119,150.8-1919.892-.232Z" transform="translate(11319 -6445)" fill="#ffddc7" opacity="0.54"/>
    <path id="路径_6705" data-name="路径 6705" d="M-11319,7495.778s245.687-22.786,423.155-19.271,507.806-66.77,632.561-87.855,420.757-16.9,576.193,0,288.24,50.666,288.24,50.666l-.348,85.652-1919.8-.006Z" transform="translate(11319 -6445)" fill="#ffddc7" opacity="0.54"/>
    <path id="路径_6693" data-name="路径 6693" d="M-11319,7065s163.567-43.166,628.433,79.653,639.189-56.788,837.285-96.407,350.752,13,454.5,63.238" transform="translate(11319 -6170)" fill="none" stroke="#ff7b2a" stroke-width="1"/>
    <path id="路径_6694" data-name="路径 6694" d="M-11319,7091.8s156.134-52.59,442.922,3.673,486.842,114.869,752.531,64.075,298.05-111.44,510.367-109.409c103.61.992,171.658,14.321,214.22,27.723" transform="translate(11319 -6170)" fill="none" stroke="#ff8439" stroke-width="1"/>
    <path id="路径_6695" data-name="路径 6695" d="M-11319,7124.375s267.115-110.183,620.325-18.754,539.98,76.577,627.345,64.386,405.336-107.685,519.113-114.8c77.254-4.829,153.217-1.244,153.217-1.244" transform="translate(11319 -6170)" fill="none" stroke="#ff7b2b" stroke-width="1"/>
    <path id="路径_6696" data-name="路径 6696" d="M-11189,7146.513l-5.2,6.293,5.2,5.746,5.473-5.746-5.473-6.293" transform="translate(11319 -6170)" fill="#ff9191"/>
    <path id="路径_6697" data-name="路径 6697" d="M-11189,7146.513l-5.2,6.293,5.2,5.746,5.473-5.746-5.473-6.293" transform="translate(11410 -6272)" fill="#ff9191"/>
    <path id="路径_6698" data-name="路径 6698" d="M-11189,7146.513l-5.2,6.293,5.2,5.746,5.473-5.746-5.473-6.293" transform="translate(11810 -6182)" fill="#ff9191"/>
    <path id="路径_6703" data-name="路径 6703" d="M-11190.107,7146.513l-4.091,4.952,4.091,4.521,4.306-4.521-4.306-4.952" transform="translate(11587 -6187)" fill="#ff9191"/>
    <path id="路径_6706" data-name="路径 6706" d="M-11190.107,7146.513l-4.091,4.952,4.091,4.521,4.306-4.521-4.306-4.952" transform="translate(11667 -6271)" fill="#ff9191"/>
    <path id="路径_6699" data-name="路径 6699" d="M-11189,7146.513l-5.2,6.293,5.2,5.746,5.473-5.746-5.473-6.293" transform="translate(12374 -6194)" fill="#ff9191"/>
    <path id="路径_6700" data-name="路径 6700" d="M-11189,7146.513l-5.2,6.293,5.2,5.746,5.473-5.746-5.473-6.293" transform="translate(12709 -6178)" fill="#ff9191"/>
    <path id="路径_6701" data-name="路径 6701" d="M-11189,7146.513l-5.2,6.293,5.2,5.746,5.473-5.746-5.473-6.293" transform="translate(12934 -6296)" fill="#ff9191"/>
    <path id="路径_6702" data-name="路径 6702" d="M-11189,7146.513l-5.2,6.293,5.2,5.746,5.473-5.746-5.473-6.293" transform="translate(13068 -6233)" fill="#ff9191"/>
  </g>
</svg>
